<mxfile host="app.diagrams.net" modified="2023-11-03T13:50:18.721Z" agent="Mozilla/5.0 (Macintosh; Intel Mac OS X 10_15_7) AppleWebKit/537.36 (KHTML, like Gecko) Chrome/118.0.0.0 Safari/537.36 Edg/118.0.2088.76" etag="JE-ilnnZpSh8jGtT-Vlc" version="22.0.8" type="device">
  <diagram name="第 1 页" id="JqIqS76eAkT34CdUVrT8">
    <mxGraphModel dx="954" dy="648" grid="1" gridSize="10" guides="1" tooltips="1" connect="1" arrows="1" fold="1" page="1" pageScale="1" pageWidth="827" pageHeight="1169" math="0" shadow="0">
      <root>
        <mxCell id="0" />
        <mxCell id="1" parent="0" />
        <mxCell id="ndqFMJzt9EwE_UeGaI_w-1" value="" style="rounded=0;whiteSpace=wrap;html=1;fillColor=#dae8fc;strokeColor=#6c8ebf;" vertex="1" parent="1">
          <mxGeometry x="319" y="160" width="40" height="40" as="geometry" />
        </mxCell>
        <mxCell id="ndqFMJzt9EwE_UeGaI_w-2" value="" style="rounded=0;whiteSpace=wrap;html=1;fillColor=#d5e8d4;strokeColor=#82b366;" vertex="1" parent="1">
          <mxGeometry x="359" y="160" width="40" height="40" as="geometry" />
        </mxCell>
        <mxCell id="ndqFMJzt9EwE_UeGaI_w-3" value="conditions" style="text;html=1;align=center;verticalAlign=middle;resizable=0;points=[];autosize=1;strokeColor=none;fillColor=none;" vertex="1" parent="1">
          <mxGeometry x="229" y="165" width="80" height="30" as="geometry" />
        </mxCell>
        <mxCell id="ndqFMJzt9EwE_UeGaI_w-4" value="" style="rounded=0;whiteSpace=wrap;html=1;fillColor=#dae8fc;strokeColor=#6c8ebf;" vertex="1" parent="1">
          <mxGeometry x="319" y="240" width="40" height="40" as="geometry" />
        </mxCell>
        <mxCell id="ndqFMJzt9EwE_UeGaI_w-5" value="" style="rounded=0;whiteSpace=wrap;html=1;fillColor=#d5e8d4;strokeColor=#82b366;" vertex="1" parent="1">
          <mxGeometry x="559" y="160" width="40" height="40" as="geometry" />
        </mxCell>
        <mxCell id="ndqFMJzt9EwE_UeGaI_w-6" value="" style="rounded=0;whiteSpace=wrap;html=1;fillColor=#dae8fc;strokeColor=#6c8ebf;" vertex="1" parent="1">
          <mxGeometry x="359" y="240" width="40" height="40" as="geometry" />
        </mxCell>
        <mxCell id="ndqFMJzt9EwE_UeGaI_w-7" value="" style="rounded=0;whiteSpace=wrap;html=1;fillColor=#dae8fc;strokeColor=#6c8ebf;" vertex="1" parent="1">
          <mxGeometry x="559" y="240" width="40" height="40" as="geometry" />
        </mxCell>
        <mxCell id="ndqFMJzt9EwE_UeGaI_w-11" value="" style="rounded=0;whiteSpace=wrap;html=1;fillColor=#d5e8d4;strokeColor=#82b366;" vertex="1" parent="1">
          <mxGeometry x="319" y="320" width="40" height="40" as="geometry" />
        </mxCell>
        <mxCell id="ndqFMJzt9EwE_UeGaI_w-12" value="" style="rounded=0;whiteSpace=wrap;html=1;fillColor=#d5e8d4;strokeColor=#82b366;" vertex="1" parent="1">
          <mxGeometry x="359" y="320" width="40" height="40" as="geometry" />
        </mxCell>
        <mxCell id="ndqFMJzt9EwE_UeGaI_w-13" value="" style="rounded=0;whiteSpace=wrap;html=1;fillColor=#d5e8d4;strokeColor=#82b366;" vertex="1" parent="1">
          <mxGeometry x="559" y="320" width="40" height="40" as="geometry" />
        </mxCell>
        <mxCell id="ndqFMJzt9EwE_UeGaI_w-14" value="vector_a" style="text;html=1;align=center;verticalAlign=middle;resizable=0;points=[];autosize=1;strokeColor=none;fillColor=none;" vertex="1" parent="1">
          <mxGeometry x="229" y="245" width="70" height="30" as="geometry" />
        </mxCell>
        <mxCell id="ndqFMJzt9EwE_UeGaI_w-15" value="vector_b" style="text;html=1;align=center;verticalAlign=middle;resizable=0;points=[];autosize=1;strokeColor=none;fillColor=none;" vertex="1" parent="1">
          <mxGeometry x="229" y="325" width="70" height="30" as="geometry" />
        </mxCell>
        <mxCell id="ndqFMJzt9EwE_UeGaI_w-17" value="" style="rounded=0;whiteSpace=wrap;html=1;fillColor=#dae8fc;strokeColor=#6c8ebf;" vertex="1" parent="1">
          <mxGeometry x="319" y="390" width="40" height="40" as="geometry" />
        </mxCell>
        <mxCell id="ndqFMJzt9EwE_UeGaI_w-18" value="" style="rounded=0;whiteSpace=wrap;html=1;fillColor=#d5e8d4;strokeColor=#82b366;" vertex="1" parent="1">
          <mxGeometry x="359" y="390" width="40" height="40" as="geometry" />
        </mxCell>
        <mxCell id="ndqFMJzt9EwE_UeGaI_w-19" value="" style="rounded=0;whiteSpace=wrap;html=1;fillColor=#d5e8d4;strokeColor=#82b366;" vertex="1" parent="1">
          <mxGeometry x="559" y="390" width="40" height="40" as="geometry" />
        </mxCell>
        <mxCell id="ndqFMJzt9EwE_UeGaI_w-20" value="dst" style="text;html=1;align=center;verticalAlign=middle;resizable=0;points=[];autosize=1;strokeColor=none;fillColor=none;" vertex="1" parent="1">
          <mxGeometry x="244" y="395" width="40" height="30" as="geometry" />
        </mxCell>
        <mxCell id="ndqFMJzt9EwE_UeGaI_w-21" value="&lt;b&gt;&lt;font style=&quot;font-size: 13px;&quot;&gt;...&lt;/font&gt;&lt;/b&gt;" style="text;html=1;align=center;verticalAlign=middle;resizable=0;points=[];autosize=1;strokeColor=none;fillColor=none;" vertex="1" parent="1">
          <mxGeometry x="464" y="165" width="30" height="30" as="geometry" />
        </mxCell>
        <mxCell id="ndqFMJzt9EwE_UeGaI_w-22" value="&lt;b&gt;&lt;font style=&quot;font-size: 13px;&quot;&gt;...&lt;/font&gt;&lt;/b&gt;" style="text;html=1;align=center;verticalAlign=middle;resizable=0;points=[];autosize=1;strokeColor=none;fillColor=none;" vertex="1" parent="1">
          <mxGeometry x="464" y="245" width="30" height="30" as="geometry" />
        </mxCell>
        <mxCell id="ndqFMJzt9EwE_UeGaI_w-23" value="&lt;b&gt;&lt;font style=&quot;font-size: 13px;&quot;&gt;...&lt;/font&gt;&lt;/b&gt;" style="text;html=1;align=center;verticalAlign=middle;resizable=0;points=[];autosize=1;strokeColor=none;fillColor=none;" vertex="1" parent="1">
          <mxGeometry x="464" y="320" width="30" height="30" as="geometry" />
        </mxCell>
        <mxCell id="ndqFMJzt9EwE_UeGaI_w-24" value="&lt;b&gt;&lt;font style=&quot;font-size: 13px;&quot;&gt;...&lt;/font&gt;&lt;/b&gt;" style="text;html=1;align=center;verticalAlign=middle;resizable=0;points=[];autosize=1;strokeColor=none;fillColor=none;" vertex="1" parent="1">
          <mxGeometry x="464" y="395" width="30" height="30" as="geometry" />
        </mxCell>
        <mxCell id="ndqFMJzt9EwE_UeGaI_w-25" value="" style="rounded=1;whiteSpace=wrap;html=1;fillColor=none;strokeColor=none;" vertex="1" parent="1">
          <mxGeometry x="80" y="140" width="690" height="315" as="geometry" />
        </mxCell>
        <mxCell id="ndqFMJzt9EwE_UeGaI_w-26" value="" style="rounded=0;whiteSpace=wrap;html=1;fillColor=none;strokeColor=#99CCFF;" vertex="1" parent="1">
          <mxGeometry x="319" y="240" width="280" height="40" as="geometry" />
        </mxCell>
        <mxCell id="ndqFMJzt9EwE_UeGaI_w-27" value="" style="rounded=0;whiteSpace=wrap;html=1;fillColor=none;strokeColor=#99FFCC;" vertex="1" parent="1">
          <mxGeometry x="319" y="320" width="280" height="40" as="geometry" />
        </mxCell>
        <mxCell id="ndqFMJzt9EwE_UeGaI_w-28" value="" style="rounded=0;whiteSpace=wrap;html=1;fillColor=none;strokeColor=#3333FF;" vertex="1" parent="1">
          <mxGeometry x="319" y="160" width="280" height="40" as="geometry" />
        </mxCell>
        <mxCell id="ndqFMJzt9EwE_UeGaI_w-29" value="" style="rounded=0;whiteSpace=wrap;html=1;fillColor=none;" vertex="1" parent="1">
          <mxGeometry x="319" y="390" width="280" height="40" as="geometry" />
        </mxCell>
      </root>
    </mxGraphModel>
  </diagram>
</mxfile>
